<?xml version="1.0" encoding="UTF-8"?>
<svg xmlns="http://www.w3.org/2000/svg" xmlns:xlink="http://www.w3.org/1999/xlink" width="240px" height="121px" viewBox="0 0 240 121" version="1.1">
<g id="surface1">
<path style=" stroke:none;fill-rule:nonzero;fill:rgb(96.470588%,78.039217%,0%);fill-opacity:1;" d="M 239.589844 10.394531 C 239.035156 5.179688 235.121094 0.953125 229.96875 0 L 9.714844 0 C 4.003906 1.074219 -0.101562 6.117188 0 11.933594 L 0 108.851562 C 0 115.527344 5.152344 120.9375 11.515625 120.9375 L 228.164062 120.9375 C 234.085938 120.816406 238.984375 116.296875 239.585938 110.398438 Z M 239.589844 10.394531 "/>
<path style=" stroke:none;fill-rule:nonzero;fill:rgb(0%,0%,0%);fill-opacity:1;" d="M 28.898438 24.300781 L 47.910156 24.300781 L 47.910156 97.597656 L 28.898438 97.597656 Z M 28.898438 24.300781 "/>
<path style=" stroke:none;fill-rule:nonzero;fill:rgb(0%,0%,0%);fill-opacity:1;" d="M 83.835938 58.0625 C 82.203125 46.894531 81.296875 40.6875 81.113281 39.445312 C 80.316406 33.464844 79.558594 28.257812 78.835938 23.820312 L 54.183594 23.820312 L 54.183594 97.117188 L 70.839844 97.117188 L 70.898438 48.722656 L 77.90625 97.117188 L 89.769531 97.117188 L 96.414062 47.644531 L 96.476562 97.117188 L 113.074219 97.117188 L 113.074219 23.820312 L 88.238281 23.820312 Z M 83.835938 58.0625 "/>
<path style=" stroke:none;fill-rule:nonzero;fill:rgb(0%,0%,0%);fill-opacity:1;" d="M 144.464844 39.070312 C 144.75 41.179688 144.855469 43.308594 144.785156 45.4375 L 144.785156 73.851562 C 144.785156 78.730469 144.46875 81.71875 143.835938 82.820312 C 143.207031 83.917969 141.523438 84.46875 138.789062 84.46875 L 138.789062 36.355469 C 140.859375 36.355469 142.273438 36.578125 143.023438 37.011719 C 143.78125 37.453125 144.308594 38.207031 144.464844 39.070312 Z M 153.054688 96.367188 C 155.136719 95.957031 157.089844 95.058594 158.757812 93.75 C 160.359375 92.402344 161.492188 90.582031 161.992188 88.550781 C 162.613281 86.339844 162.980469 81.945312 162.980469 75.371094 L 162.980469 49.636719 C 162.980469 42.699219 162.710938 38.050781 162.289062 35.6875 C 161.847656 33.289062 160.75 31.058594 159.121094 29.246094 C 157.128906 27.144531 154.550781 25.695312 151.722656 25.089844 C 148.476562 24.246094 143.183594 23.820312 133.980469 23.820312 L 119.796875 23.820312 L 119.796875 97.117188 L 142.828125 97.117188 C 148.136719 96.949219 151.546875 96.703125 153.054688 96.371094 Z M 153.054688 96.367188 "/>
<path style=" stroke:none;fill-rule:nonzero;fill:rgb(0%,0%,0%);fill-opacity:1;" d="M 193.65625 85.417969 C 193.304688 86.347656 191.773438 86.816406 190.613281 86.816406 C 189.640625 86.914062 188.71875 86.367188 188.34375 85.460938 C 187.960938 84.5625 187.769531 82.5 187.773438 79.28125 L 187.773438 59.914062 C 187.773438 56.574219 187.941406 54.492188 188.277344 53.660156 C 188.65625 52.804688 189.550781 52.300781 190.476562 52.417969 C 191.636719 52.417969 193.1875 52.890625 193.589844 53.835938 C 193.988281 54.785156 194.183594 56.808594 194.183594 59.910156 L 194.183594 78.691406 C 194.0625 82.550781 193.886719 84.792969 193.65625 85.417969 Z M 169.453125 96.480469 L 186.570312 96.480469 C 187.285156 93.679688 187.679688 92.125 187.753906 91.8125 C 189.148438 93.566406 190.894531 95.003906 192.878906 96.039062 C 195.027344 96.980469 197.347656 97.460938 199.6875 97.445312 C 202.46875 97.515625 205.199219 96.683594 207.472656 95.074219 C 209.46875 93.753906 210.941406 91.773438 211.640625 89.480469 C 212.339844 86.253906 212.636719 82.957031 212.527344 79.65625 L 212.527344 59.085938 C 212.589844 56.195312 212.492188 53.300781 212.230469 50.417969 C 211.976562 48.917969 211.375 47.496094 210.480469 46.269531 C 209.417969 44.78125 207.949219 43.636719 206.246094 42.972656 C 204.164062 42.144531 201.9375 41.742188 199.699219 41.792969 C 197.351562 41.777344 195.023438 42.21875 192.84375 43.097656 C 190.890625 44.027344 189.164062 45.367188 187.773438 47.027344 L 187.773438 23.183594 L 169.453125 23.183594 Z M 169.453125 96.480469 "/>
</g>
</svg>
